Coordinates
version=1
nRows=10
nColumns=63
inDegrees=yes

Units are S.I. units (second, meters, Newtons, ...)
If the header above contains a line with 'inDegrees', this indicates whether rotational values are in degrees (yes) or radians (no).

endheader
time	pelvis_tilt	pelvis_list	pelvis_rotation	pelvis_tx	pelvis_ty	pelvis_tz	hip_flexion_r	hip_adduction_r	hip_rotation_r	knee_angle_r	knee_angle_r_beta	ankle_angle_r	subtalar_angle_r	mtp_angle_r	hip_flexion_l	hip_adduction_l	hip_rotation_l	knee_angle_l	knee_angle_l_beta	ankle_angle_l	subtalar_angle_l	mtp_angle_l	L5_S1_Flex_Ext	L5_S1_Lat_Bending	L5_S1_axial_rotation	L4_L5_Flex_Ext	L4_L5_Lat_Bending	L4_L5_axial_rotation	L3_L4_Flex_Ext	L3_L4_Lat_Bending	L3_L4_axial_rotation	L2_L3_Flex_Ext	L2_L3_Lat_Bending	L2_L3_axial_rotation	L1_L2_Flex_Ext	L1_L2_Lat_Bending	L1_L2_axial_rotation	L1_T12_Flex_Ext	L1_T12_Lat_Bending	L1_T12_axial_rotation	Abs_r3	Abs_r2	Abs_r1	Abs_t1	Abs_t2	neck_flexion	neck_bending	neck_rotation	arm_flex_r	arm_add_r	arm_rot_r	elbow_flex_r	pro_sup_r	wrist_flex_r	wrist_dev_r	arm_flex_l	arm_add_l	arm_rot_l	elbow_flex_l	pro_sup_l	wrist_flex_l	wrist_dev_l
1.000000	2.361206	-2.446891	95.683457	0.160742	1.021741	0.059002	-3.946330	3.359192	-11.376901	3.059581	0.053400	27.751228	0.413168	0.000000	-2.479851	-0.929867	12.558887	1.559516	0.027219	21.484968	-10.318455	0.000000	0.275632	0.408333	-0.704756	0.511876	0.543083	-0.748803	0.452836	0.992821	-0.748803	0.315020	0.992821	-0.616661	0.255952	0.832673	-0.572614	0.157496	0.632508	-0.528567	1.968811	4.619144	-3.919640	0.000000	0.000000	27.723496	5.857562	9.297798	17.107072	-10.140077	92.766584	35.595766	5.817178	6.278953	2.278432	12.631745	-5.496557	73.587455	36.191838	50.637266	5.562059	-4.583633
1.016667	2.348752	-2.427759	95.873623	0.160499	1.021735	0.058942	-4.026502	3.386742	-11.006743	2.924676	0.051045	27.657595	-0.147233	0.000000	-2.478346	-0.923333	13.067111	1.638897	0.028604	21.239098	-10.633850	0.000000	0.277150	0.398847	-0.750755	0.514695	0.530467	-0.797677	0.455329	0.969758	-0.797677	0.316754	0.969758	-0.656911	0.257361	0.813330	-0.609989	0.158363	0.617815	-0.563066	1.979652	4.511842	-4.175475	0.000000	0.000000	27.731391	5.745760	8.514747	16.982666	-10.092932	92.240304	35.625765	5.283392	6.224237	2.492075	12.590792	-5.522135	73.450711	36.251728	50.969879	5.513871	-4.627394
1.033333	2.346940	-2.427093	96.072652	0.160267	1.021710	0.058964	-4.071960	3.420926	-10.720820	2.800001	0.048869	27.621805	-0.598402	0.000000	-2.443578	-0.923235	13.471789	1.722900	0.030070	21.061772	-10.803436	0.000000	0.280269	0.389363	-0.789752	0.520488	0.517853	-0.839111	0.460454	0.946698	-0.839111	0.320320	0.946698	-0.691033	0.260258	0.793989	-0.641673	0.160146	0.603124	-0.592314	2.001935	4.404554	-4.392363	0.000000	0.000000	27.745793	5.624835	7.670258	16.837219	-10.035768	91.680108	35.599627	5.348709	6.079057	2.678691	12.577226	-5.535724	73.459577	36.267922	51.190772	5.464208	-4.599153
1.050000	2.354867	-2.447595	96.327213	0.159981	1.021661	0.059102	-4.086963	3.467736	-10.433643	2.670822	0.046615	27.591965	-1.143206	0.000000	-2.368743	-0.928844	14.073066	1.800885	0.031431	20.875725	-11.186159	0.000000	0.285627	0.379963	-0.831471	0.530437	0.505351	-0.883438	0.469256	0.923842	-0.883438	0.326443	0.923842	-0.727537	0.265233	0.774820	-0.675570	0.163207	0.588563	-0.623603	2.040202	4.298216	-4.624391	0.000000	0.000000	27.763806	5.509865	6.807682	16.700995	-9.958267	91.238505	35.523865	5.453637	5.961592	2.834563	12.605464	-5.550761	73.651062	36.226385	51.438941	5.433352	-4.647297
1.066667	2.378098	-2.484868	96.630975	0.159621	1.021604	0.059390	-4.069396	3.529051	-10.168645	2.546914	0.044452	27.568986	-1.747648	0.000000	-2.247806	-0.941999	14.757246	1.887798	0.032948	20.738262	-11.637491	0.000000	0.292200	0.372493	-0.878417	0.542644	0.495415	-0.933318	0.480055	0.905679	-0.933318	0.333955	0.905679	-0.768615	0.271337	0.759587	-0.713714	0.166963	0.576991	-0.658813	2.087154	4.213713	-4.885491	0.000000	0.000000	27.784120	5.401200	5.989433	16.588807	-9.868857	90.917960	35.402186	5.595504	5.894021	2.978036	12.665604	-5.569456	73.974798	36.134950	51.687927	5.407447	-4.822463
1.083333	2.415906	-2.525472	96.912507	0.159258	1.021574	0.059810	-4.028665	3.596447	-9.960584	2.434550	0.042491	27.587608	-2.258441	0.000000	-2.101102	-0.968188	15.107905	1.985288	0.034650	20.781879	-11.661333	0.000000	0.297650	0.368006	-0.917049	0.552765	0.489448	-0.974365	0.489008	0.894771	-0.974365	0.340184	0.894771	-0.802418	0.276397	0.750438	-0.745103	0.170077	0.570042	-0.687787	2.126081	4.162961	-5.100354	0.000000	0.000000	27.801252	5.283416	5.238319	16.444924	-9.803288	90.447284	35.257471	6.424810	5.781161	3.080831	12.750844	-5.592511	74.375014	36.031254	51.786398	5.359055	-5.052748
1.100000	2.473185	-2.568126	97.231138	0.158791	1.021575	0.060397	-3.964092	3.678183	-9.823395	2.334334	0.040742	27.637207	-2.749850	0.000000	-1.924949	-1.005559	15.616503	2.084789	0.036386	20.843943	-11.873837	0.000000	0.302522	0.367862	-0.967553	0.561813	0.489257	-1.028025	0.497013	0.894421	-1.028025	0.345752	0.894421	-0.846609	0.280922	0.750145	-0.786137	0.172861	0.569819	-0.725664	2.160883	4.161333	-5.381237	0.000000	0.000000	27.803303	5.177273	4.637387	16.387066	-9.727249	90.281236	35.118795	6.619348	5.753098	3.255391	12.844618	-5.628821	74.755119	35.924676	51.814164	5.322765	-5.343055
1.116667	2.556173	-2.597175	97.532572	0.158277	1.021627	0.061125	-3.888678	3.776008	-9.800311	2.253426	0.039330	27.734665	-3.071234	0.000000	-1.726188	-1.065586	15.923659	2.223784	0.038812	21.041826	-11.868660	0.000000	0.303737	0.373617	-1.019950	0.564069	0.496911	-1.083697	0.499009	0.908413	-1.083697	0.347141	0.908413	-0.892456	0.282050	0.761880	-0.828709	0.173555	0.578733	-0.764962	2.169561	4.226432	-5.672656	0.000000	0.000000	27.797923	5.071296	4.192641	16.353083	-9.678491	90.121980	34.992861	6.964370	5.772650	3.424726	12.945837	-5.674014	75.074256	35.842644	51.736493	5.286021	-5.677531
1.133333	2.655148	-2.613512	97.825336	0.157709	1.021722	0.061948	-3.806927	3.883111	-9.826988	2.194335	0.038298	27.851807	-3.335739	0.000000	-1.529266	-1.136520	16.240578	2.362994	0.041242	21.242576	-11.939614	0.000000	0.302301	0.384179	-1.080602	0.561403	0.510959	-1.148140	0.496650	0.934094	-1.148140	0.345499	0.934094	-0.945527	0.280716	0.783419	-0.877990	0.172735	0.595094	-0.810452	2.159303	4.345914	-6.009987	0.000000	0.000000	27.771111	4.987606	3.946763	16.376199	-9.638103	90.102643	34.877387	7.282886	5.862653	3.586682	13.023762	-5.734468	75.231929	35.803954	51.595435	5.272054	-5.996421
1.150000	2.761591	-2.616368	98.107394	0.157106	1.021850	0.062835	-3.722352	3.989782	-9.972973	2.168819	0.037853	27.994081	-3.446111	0.000000	-1.337458	-1.213243	16.369849	2.511213	0.043829	21.487764	-11.804091	0.000000	0.298505	0.397957	-1.147069	0.554354	0.529283	-1.218760	0.490414	0.967592	-1.218760	0.341161	0.967592	-1.003685	0.277192	0.811513	-0.931993	0.170566	0.616435	-0.860301	2.132191	4.501767	-6.379651	0.000000	0.000000	27.723518	4.915035	3.854330	16.420754	-9.612848	90.089026	34.793826	7.599850	6.000366	3.796715	13.093808	-5.811863	75.269487	35.805512	51.396957	5.294651	-6.312487
